<svg width="88" height="102" viewBox="0 0 88 102" fill="none" xmlns="http://www.w3.org/2000/svg">
<rect width="88" height="102" fill="#1E1E1E"/>
<g id="Product Item">
<rect id="White BG" x="-472" y="-724" width="1281" height="1794" fill="white"/>
<g id="BG">
<rect id="Rectangle 63" x="-472" y="-35" width="1280" height="226" fill="#F5F5F5"/>
</g>
<g id="Features Icon">
<g id="Group 41">
<g id="Vector">
<path d="M83.7239 28.3127C81.0212 21.7112 75.4089 16.912 68.3262 15.1457C61.1925 13.3665 53.847 14.9668 48.1673 19.5415L48.1428 19.5612C47.0489 20.4453 45.4634 20.3495 44.5329 19.3433C41.5675 16.1377 39.4753 12.3686 38.314 8.14064L36.4797 1.46266C36.2432 0.601638 35.4397 0 34.5256 0H27.8569C26.5267 0 25.5584 1.22997 25.9032 2.48365L28.1843 10.7884C28.312 11.2526 28.4496 11.7176 28.5934 12.1706C28.844 12.9587 29.7012 13.4002 30.51 13.1558C31.318 12.9115 31.7701 12.0746 31.5198 11.2865C31.3876 10.8699 31.2608 10.442 31.1433 10.0151L29.2131 2.98827H33.727L35.355 8.91421C36.6429 13.6032 38.9655 17.7856 42.2585 21.3452C44.2923 23.544 47.7354 23.7713 50.1072 21.8546C55.1364 17.8131 61.4948 16.5263 67.5675 18.0408C73.6912 19.568 78.5431 23.7159 80.879 29.4209C87.275 45.0426 86.0612 60.3609 77.4609 72.554C71.1752 81.4642 61.1848 87.0162 50.0513 87.7866C39.886 88.4902 30.0511 85.1432 22.5826 78.5343C21.3127 77.3711 20.5866 75.7225 20.5866 73.9913C20.5866 73.1662 19.901 72.4972 19.0548 72.4972C18.2086 72.4972 17.523 73.1662 17.523 73.9913C17.523 74.1294 17.5263 74.2673 17.5326 74.4045C16.4238 73.9619 15.2069 73.7887 13.9674 73.9168C11.6437 74.1565 9.62932 75.4195 8.44044 77.382C6.73606 80.1958 7.23747 83.811 9.65975 86.1735L22.821 99.0111H16.6552L6.48505 89.0911C2.74828 85.4462 1.98401 79.7832 4.62626 75.3197C6.24874 72.5785 8.85791 70.6716 11.973 69.9508C15.075 69.2328 18.3886 69.7406 20.8366 71.3093C24.0832 73.3901 27.9713 74.0937 31.5032 73.2403C35.1961 72.3474 38.4958 70.2409 40.7943 67.3092C41.8539 65.9575 42.7719 64.4665 43.5225 62.8778C46.2757 57.0506 46.4544 50.703 44.0392 44.5214C42.4913 40.5598 42.2499 36.3059 43.3414 32.2197C43.8746 30.223 43.2264 28.122 41.649 26.7366C38.631 24.086 36.1219 20.9749 34.191 17.4893C33.7889 16.7634 32.8598 16.4931 32.1151 16.8851C31.3707 17.2774 31.0935 18.184 31.4957 18.91C33.5934 22.6969 36.3198 26.0774 39.5991 28.9575C40.3225 29.5928 40.6205 30.5541 40.3768 31.4665C39.1238 36.1577 39.4006 41.0401 41.1764 45.5858C43.2917 50.9994 43.1408 56.5466 40.7402 61.6273C40.0837 63.0162 39.2831 64.3173 38.3606 65.4943C36.4834 67.8891 33.7862 69.6099 30.7661 70.3401C28.0603 70.9943 25.0547 70.4373 22.5187 68.8123C19.3793 66.8006 15.1726 66.1394 11.2655 67.0438C7.32141 67.9566 4.02151 70.3652 1.97298 73.826C-1.36144 79.4587 -0.397016 86.605 4.31827 91.2046L14.7939 101.423C15.1761 101.795 15.6838 102 16.2238 102H25.3335C26.1548 102 26.8882 101.522 27.2023 100.782C27.5164 100.042 27.3443 99.198 26.764 98.6318L11.8259 84.0612C10.3924 82.6631 10.085 80.5418 11.0778 78.9027C11.7687 77.7621 12.939 77.0282 14.2893 76.889C15.6615 76.7479 16.9869 77.2378 17.9278 78.2343C18.7593 79.1146 19.6252 79.9527 20.5229 80.7474C20.5553 80.7769 20.588 80.8062 20.6211 80.8351C27.9909 87.3136 37.4613 90.8679 47.3849 90.8675C60.4003 90.8675 72.5244 84.8228 79.9844 74.2481C89.184 61.2053 90.512 44.8918 83.7239 28.3127Z" fill="black"/>
<path d="M48.8168 33.5286C49.5742 30.6067 51.2405 28.0529 53.6304 26.1472L53.711 26.0824C53.7114 26.082 53.7108 26.0826 53.7137 26.0802C56.3382 23.9711 59.4295 22.933 62.6337 22.933C64.4592 22.933 66.2313 23.2619 67.9016 23.9105C68.6871 24.2153 69.5784 23.8418 69.8913 23.075C70.2042 22.3084 69.8206 21.4394 69.0349 21.1342C67.0025 20.3451 64.8488 19.9449 62.6337 19.9449C58.6687 19.9449 54.9399 21.247 51.839 23.7155C51.8057 23.7408 51.8112 23.7374 51.697 23.8293C48.7893 26.148 46.7661 29.2488 45.8449 32.8026L45.8319 32.8528C44.8762 36.431 45.0878 40.157 46.4442 43.6279C49.0033 50.1788 49.0544 57.168 45.8596 63.9286C45.0294 65.686 44.0129 67.3365 42.8385 68.8342C42.3206 69.4948 41.7428 70.1337 41.1211 70.7331C38.5468 73.215 37.7956 76.7888 39.1608 80.0599C40.5182 83.3116 43.5946 85.3452 47.1843 85.3671L47.2521 85.3675L47.2666 82.3792L47.2093 82.3788C44.4206 82.3619 42.6888 80.5876 41.9981 78.9329C41.3012 77.2631 41.2706 74.7904 43.2744 72.8584C43.9964 72.1625 44.6685 71.4192 45.2718 70.6495C46.5833 68.977 47.717 67.1367 48.6418 65.1795C51.0351 60.1148 51.8663 54.6106 51.0735 49.168C51.2742 49.155 51.4971 49.1475 51.7456 49.1475C53.1475 49.1475 53.7735 49.371 54.566 49.6539C55.4699 49.9766 56.4944 50.3424 58.4394 50.3424C60.3844 50.3424 61.409 49.9766 62.313 49.6539C63.1054 49.371 63.7314 49.1475 65.1335 49.1475C66.5357 49.1475 67.1617 49.371 67.9541 49.6539C68.8583 49.9766 69.8827 50.3424 71.8279 50.3424C73.7727 50.3424 74.7974 49.9766 75.7013 49.6539C76.4938 49.371 77.1198 49.1475 78.5219 49.1475C78.8135 49.1475 79.0692 49.158 79.2937 49.1754C79.2347 56.7305 76.9866 63.526 72.8171 69.4376C69.8805 73.6001 66.0812 76.8545 61.5246 79.1108C59.2453 80.2394 56.802 81.0915 54.2625 81.6435C53.4367 81.823 52.9163 82.6215 53.1006 83.4269C53.2844 84.2321 54.103 84.74 54.9287 84.5603C57.718 83.954 60.4038 83.0171 62.9112 81.7754C67.929 79.2907 72.111 75.7098 75.3408 71.1316C84.0323 58.8085 84.1299 44.1292 78.4892 30.3521C77.7662 28.5864 76.7517 26.9731 75.4742 25.5571C74.9152 24.9375 73.9473 24.8773 73.3123 25.4224C72.6774 25.9677 72.6155 26.9118 73.1745 27.5311C74.2202 28.6904 75.051 30.0124 75.6441 31.4603C77.681 36.4358 78.875 41.377 79.2022 46.1753C78.9831 46.1648 78.7568 46.1594 78.5217 46.1594C76.5767 46.1594 75.552 46.5252 74.6481 46.8479C73.8556 47.1308 73.2298 47.3543 71.8277 47.3543C70.4256 47.3543 69.7994 47.1308 69.007 46.8479C68.1028 46.5252 67.0785 46.1594 65.1333 46.1594C63.1882 46.1594 62.1637 46.5252 61.2597 46.8479C60.4673 47.1308 59.8413 47.3543 58.4392 47.3543C57.0371 47.3543 56.4113 47.1308 55.6188 46.8479C54.7149 46.5252 53.6904 46.1594 51.7454 46.1594C51.2979 46.1594 50.8803 46.1787 50.483 46.2186C50.1711 44.993 49.7774 43.7688 49.3064 42.5639C48.1786 39.677 48.0021 36.5796 48.7956 33.6083L48.8168 33.5286Z" fill="black"/>
<path d="M58.0893 55.0041C55.6905 55.0041 53.739 56.9076 53.739 59.2474C53.739 61.5872 55.6905 63.4908 58.0893 63.4908C60.4881 63.4908 62.4396 61.5872 62.4396 59.2474C62.4396 56.9076 60.4881 55.0041 58.0893 55.0041ZM58.0893 60.5025C57.3798 60.5025 56.8026 59.9395 56.8026 59.2474C56.8026 58.5553 57.3798 57.9923 58.0893 57.9923C58.7988 57.9923 59.376 58.5553 59.376 59.2474C59.376 59.9395 58.7988 60.5025 58.0893 60.5025Z" fill="black"/>
<path d="M56.5575 70.2443C56.5575 72.5841 58.509 74.4876 60.9078 74.4876C63.3066 74.4876 65.2583 72.5841 65.2583 70.2443C65.2583 67.9044 63.3066 66.0009 60.9078 66.0009C58.509 66.0009 56.5575 67.9044 56.5575 70.2443ZM62.1947 70.2443C62.1947 70.9363 61.6176 71.4993 60.9078 71.4993C60.1983 71.4993 59.6211 70.9363 59.6211 70.2443C59.6211 69.5522 60.1983 68.9892 60.9078 68.9892C61.6174 68.9892 62.1947 69.5522 62.1947 70.2443Z" fill="black"/>
<path d="M72.0025 59.7909C72.8485 59.7909 73.5343 59.1219 73.5343 58.2968C73.5343 57.4716 72.8485 56.8026 72.0025 56.8026C71.1566 56.8026 70.4707 57.4716 70.4707 58.2968C70.4707 59.1219 71.1566 59.7909 72.0025 59.7909Z" fill="black"/>
<path d="M68.076 64.7464C68.922 64.7464 69.6078 64.0775 69.6078 63.2523C69.6078 62.4271 68.922 61.7582 68.076 61.7582C67.23 61.7582 66.5442 62.4271 66.5442 63.2523C66.5442 64.0775 67.23 64.7464 68.076 64.7464Z" fill="black"/>
<path d="M51.1652 73.2319C52.0112 73.2319 52.697 72.563 52.697 71.7378C52.697 70.9126 52.0112 70.2437 51.1652 70.2437C50.3192 70.2437 49.6334 70.9126 49.6334 71.7378C49.6334 72.563 50.3192 73.2319 51.1652 73.2319Z" fill="black"/>
</g>
</g>
</g>
<rect x="-471.5" y="-723.5" width="1280" height="1850" stroke="black"/>
</g>
<g id="Mobile">
</g>
<g id="LINE-UPS">
</g>
</svg>
