<svg width="148" height="102" viewBox="0 0 148 102" fill="none" xmlns="http://www.w3.org/2000/svg">
<rect width="148" height="102" fill="#1E1E1E"/>
<g id="Product Item">
<rect id="White BG" x="-687" y="-724" width="1281" height="1794" fill="white"/>
<g id="BG">
<rect id="Rectangle 63" x="-687" y="-35" width="1280" height="226" fill="#F5F5F5"/>
</g>
<g id="Features Icon">
<g id="Group 42">
<path id="Vector" d="M136.708 73.1484C136.306 72.024 136.904 70.7935 138.027 70.4019C139.158 70.0025 140.395 70.598 140.789 71.7143C141.665 74.192 142.608 76.2131 143.624 77.5658C144.124 78.2262 144.935 79.1229 145.845 79.1229C147.033 79.1229 148 80.0844 148 81.274C148 82.4562 147.033 83.426 145.845 83.426C145.656 83.426 128.563 83.426 123.925 83.426C121.221 83.426 119.049 81.5428 117.238 78.4134C112.969 85.0639 107.184 90.663 100.374 94.738C92.663 99.3432 83.6408 102 74.0041 102C70.9478 102 67.9488 101.731 65.0394 101.217C62.0569 100.696 59.1555 99.9133 56.3699 98.8947C55.2469 98.4873 54.665 97.2482 55.0832 96.1318C55.4928 95.0154 56.7387 94.445 57.8611 94.8524C60.4014 95.7816 63.048 96.4906 65.7852 96.9713C68.4483 97.4443 71.1932 97.6883 74.0041 97.6883C82.8459 97.6883 91.1061 95.2598 98.1531 91.0462C105.201 86.8323 111.043 80.8255 115.05 73.6535C113.272 68.91 111.854 62.8788 110.535 56.5705C107.568 70.6868 104.168 83.4334 97.1371 83.4334H75.2251C68.1942 83.4334 64.7934 70.6865 61.8271 56.5705C58.8688 70.6868 55.4683 83.4334 48.4374 83.4334H40.2347C41.0623 84.2813 41.9229 85.1041 42.8161 85.8947C44.8814 87.7204 47.0933 89.3586 49.4208 90.7849C50.4372 91.4128 50.7482 92.7327 50.1256 93.7435C49.4948 94.7541 48.1675 95.064 47.1511 94.4445C44.5698 92.8629 42.1605 91.0784 39.9402 89.1139C37.9818 87.3783 36.1382 85.4787 34.4417 83.4332H26.517C18.5687 83.4332 15.2665 67.1491 11.9885 51.02C11.2922 47.6131 10.6036 44.2223 9.87434 40.979C9.62025 39.8215 10.3498 38.6727 11.5133 38.4199C12.6852 38.1592 13.8322 38.8926 14.0946 40.0498C14.8158 43.2853 15.5206 46.725 16.2172 50.1724C17.0364 54.2066 21.1665 79.1221 26.5173 79.1221H42.1769C37.8751 72.3733 35.6627 59.6594 33.9008 51.02C33.0157 46.6761 28.9923 22.8773 24.084 22.8773H8.39955C9.59597 24.8335 10.6453 27.417 11.5873 30.4165C11.9397 31.5573 11.3087 32.7636 10.1611 33.1141C9.0219 33.4649 7.80928 32.837 7.45692 31.6956C6.53915 28.8027 5.56385 26.3981 4.48247 24.7682C3.67946 23.5699 2.90911 22.8773 2.17172 22.8773C0.975004 22.8773 0 21.9154 0 20.7257C0 19.5354 0.975004 18.5657 2.17172 18.5657H24.0837C26.7633 18.5657 28.9018 20.5221 30.6798 23.7246C34.9331 17.05 40.7019 11.4262 47.5116 7.32639C55.2469 2.68095 64.3101 0 74.0038 0C77.6506 0 81.2234 0.382951 84.6811 1.10803C88.2048 1.85783 91.6137 2.96615 94.8503 4.40078C95.9403 4.88148 96.432 6.15281 95.9403 7.23669C95.4567 8.32086 94.1785 8.81019 93.089 8.3292C90.147 7.02481 87.0251 6.00619 83.7801 5.32165C80.6418 4.66154 77.3719 4.31079 74.0041 4.31079C65.1215 4.31079 56.8208 6.76404 49.7486 11.0185C42.6686 15.2807 36.8097 21.353 32.8192 28.5822C34.6547 33.6762 36.089 40.2042 37.4817 46.9524C40.5056 32.2416 43.7671 18.5654 50.8713 18.5654H72.7914C79.896 18.5654 83.1575 32.2416 86.1811 46.9524C87.4266 40.889 91.0159 18.5654 99.579 18.5654H107.774C107.315 18.093 106.84 17.6281 106.356 17.1719C104.75 15.6475 103.037 14.2457 101.235 12.9583C100.259 12.2737 100.03 10.9285 100.727 9.95876C101.415 8.99707 102.767 8.76879 103.742 9.45333C105.717 10.8632 107.593 12.3956 109.339 14.0582C110.83 15.4601 112.24 16.968 113.567 18.5654H121.491C129.12 18.5654 132.316 34.3035 135.545 50.1721C136.38 54.3044 137.224 58.453 138.191 62.5442C138.47 63.7011 137.74 64.8586 136.577 65.1274C135.413 65.3965 134.25 64.6792 133.98 63.5139C133.086 59.7405 132.193 55.3722 131.308 51.0197C130.538 47.2299 126.473 22.8771 121.491 22.8771H105.668C109.888 29.6661 111.887 41.6388 113.625 50.1721C114.558 54.7607 118.639 79.1298 123.925 79.1298H139.47C138.445 77.5089 137.535 75.4797 136.708 73.1484ZM108.331 45.8211C107.601 42.3084 104.217 23.1226 99.579 22.8699C95.4819 22.8699 92.6303 36.8884 89.7622 51.0208C89.2624 53.458 88.7627 55.9026 88.3854 57.6877C90.852 69.2283 93.4989 79.1229 97.1371 79.1229C101.554 79.1229 104.512 64.5829 107.437 50.1816C107.765 48.592 108.085 46.9947 108.331 45.8211ZM82.608 51.0208C79.7318 36.8884 76.8886 22.8782 72.7912 22.8782H56.9679C61.1798 29.6673 63.1874 41.64 64.9246 50.1733C67.8499 64.5828 70.8079 79.1229 75.2251 79.1229H90.8763C86.5823 72.3744 84.362 59.6603 82.608 51.0208ZM50.871 22.8785C46.7736 22.8785 43.9304 36.8884 41.0542 51.0211C40.5625 53.4583 40.0628 55.9029 39.6858 57.6799C42.144 69.2286 44.7909 79.1232 48.4374 79.1232C52.854 79.1232 55.8042 64.5831 58.7379 50.1819C59.0573 48.584 59.3851 46.995 59.6227 45.8214C57.0989 33.6448 54.4603 22.8785 50.871 22.8785Z" fill="black"/>
</g>
</g>
<rect x="-686.5" y="-723.5" width="1280" height="1850" stroke="black"/>
</g>
<g id="Mobile">
</g>
<g id="LINE-UPS">
</g>
</svg>
