<svg width="96" height="102" viewBox="0 0 96 102" fill="none" xmlns="http://www.w3.org/2000/svg">
<rect width="96" height="102" fill="#1E1E1E"/>
<g id="Product Item">
<rect id="White BG" x="-940" y="-724" width="1281" height="1794" fill="white"/>
<g id="BG">
<rect id="Rectangle 63" x="-940" y="-35" width="1280" height="226" fill="#F5F5F5"/>
</g>
<g id="Features Icon">
<g id="Group 43">
<g id="Vector">
<path d="M2.03311 47.4943L8.42962 48.0302C8.4717 48.034 8.51357 48.0354 8.55505 48.0354C9.30525 48.0354 9.94788 47.469 10.0326 46.7074C11.07 37.4065 15.483 28.8104 22.4595 22.503C29.1179 16.4828 37.6088 13.0249 46.5116 12.6773V13.3875C46.5116 14.7551 47.62 15.8678 48.9824 15.8678C49.6225 15.8678 50.2306 15.6219 50.6994 15.1709L56.1553 9.87747C56.6789 9.37145 56.9788 8.66283 56.9788 7.93369C56.9788 7.20475 56.6787 6.49612 56.1569 5.9919L50.6944 0.691488C50.2302 0.245437 49.6223 0 48.9827 0C47.6202 0 46.5118 1.11264 46.5118 2.48027V3.24248C35.451 3.58753 24.8722 7.77053 16.5776 15.1093C15.9609 15.6548 15.9016 16.5991 16.4452 17.2181C16.9888 17.8371 17.9295 17.8968 18.5459 17.351C26.6679 10.1651 37.1284 6.20766 48.0002 6.20766C48.8225 6.20766 49.4887 5.53888 49.4887 4.71352V3.67778L53.8756 7.93389L49.4887 12.19V11.1543C49.4887 10.3289 48.8225 9.66012 48.0002 9.66012C37.8216 9.66012 28.0435 13.4327 20.4673 20.2827C13.3105 26.7531 8.65647 35.4609 7.26087 44.9338L3.82426 44.6457C4.99023 36.3469 8.43637 28.605 13.8431 22.1721C14.3732 21.5413 14.2937 20.5988 13.6653 20.0667C13.0374 19.5346 12.0982 19.6145 11.5679 20.2452C5.44809 27.5265 1.68203 36.3793 0.677007 45.847C0.634536 46.247 0.754607 46.6473 1.00983 46.9573C1.26486 47.2674 1.6338 47.4609 2.03311 47.4943Z" fill="black"/>
<path d="M93.9674 54.5056L87.5709 53.9698C86.7687 53.8986 86.0572 54.4889 85.9677 55.2928C85.432 60.1085 84.0049 64.7212 81.7263 69.0028C81.3389 69.7305 81.6128 70.6358 82.3378 71.0247C83.0633 71.4139 83.9646 71.1384 84.352 70.4109C86.5809 66.2223 88.0543 61.7399 88.7402 57.0664L92.1768 57.3543C90.8301 66.9879 86.4853 75.7149 79.5535 82.6732C71.1237 91.133 59.9178 95.7923 48.0002 95.7923C47.178 95.7923 46.5118 96.4611 46.5118 97.2865V98.3222L42.1249 94.0661L46.5118 89.81V90.8457C46.5118 91.6711 47.178 92.3399 48.0002 92.3399C60.724 92.3399 72.5398 86.554 80.418 76.4655C80.9253 75.8161 80.8118 74.877 80.165 74.368C79.518 73.8592 78.5826 73.9725 78.0753 74.622C71.0735 83.588 60.7214 88.8916 49.4889 89.3229V88.6125C49.4889 87.2449 48.3805 86.1322 47.018 86.1322C46.378 86.1322 45.7699 86.3781 45.3011 86.8291L39.8451 92.1225C39.3216 92.6286 39.0217 93.3372 39.0217 94.0663C39.0217 94.7952 39.3218 95.5039 39.8436 96.0081L45.3065 101.309C45.7707 101.754 46.3786 102 47.0182 102C48.3807 102 49.4891 100.887 49.4891 99.5197V98.7579C61.6441 98.3856 73.0185 93.4577 81.659 84.7863C89.4398 76.9757 94.1653 67.0746 95.3241 56.1528C95.3666 55.753 95.2465 55.3527 94.9913 55.0427C94.7356 54.7326 94.3667 54.5391 93.9674 54.5056Z" fill="black"/>
<path d="M40.1153 82.6798H55.8854C56.7077 82.6798 57.3739 82.011 57.3739 81.1856V60.4091H78.0716C78.8938 60.4091 79.5601 59.7403 79.5601 58.915V43.085C79.5601 42.2597 78.8938 41.5909 78.0716 41.5909H72.6416C71.8194 41.5909 71.1531 42.2597 71.1531 43.085C71.1531 43.9104 71.8194 44.5792 72.6416 44.5792H76.5829V57.421H55.8852C55.063 57.421 54.3968 58.0898 54.3968 58.9152V79.6915H41.6037V58.915C41.6037 58.0896 40.9375 57.4208 40.1153 57.4208H19.4174V44.5792H40.1153C40.9375 44.5792 41.6037 43.9104 41.6037 43.085V22.3085H54.3969V43.085C54.3969 43.9104 55.0632 44.5792 55.8854 44.5792H65.6955C66.5178 44.5792 67.184 43.9104 67.184 43.085C67.184 42.2597 66.5178 41.5909 65.6955 41.5909H57.3739V20.8144C57.3739 19.989 56.7077 19.3202 55.8854 19.3202H40.1153C39.293 19.3202 38.6268 19.989 38.6268 20.8144V41.5909H17.9289C17.1067 41.5909 16.4404 42.2597 16.4404 43.085V58.9152C16.4404 59.7405 17.1067 60.4093 17.9289 60.4093H38.6268V81.1856C38.6268 82.0108 39.293 82.6798 40.1153 82.6798Z" fill="black"/>
<path d="M94.5118 18.9168H89.5849V13.9712C89.5849 13.1458 88.9186 12.4771 88.0964 12.4771H81.681C80.8588 12.4771 80.1926 13.1458 80.1926 13.9712V18.9168H75.2657C74.4434 18.9168 73.7772 19.5856 73.7772 20.411V26.8507C73.7772 27.6761 74.4434 28.3448 75.2657 28.3448H80.1926V33.2904C80.1926 34.1158 80.8588 34.7846 81.681 34.7846H88.0964C88.9186 34.7846 89.5849 34.1158 89.5849 33.2904V28.3448H94.5118C95.334 28.3448 96.0002 27.6761 96.0002 26.8507V20.411C96.0002 19.5856 95.334 18.9168 94.5118 18.9168ZM93.0233 25.3566H88.0964C87.2742 25.3566 86.6079 26.0253 86.6079 26.8507V31.7963H83.1695V26.8507C83.1695 26.0253 82.5033 25.3566 81.681 25.3566H76.7542V21.9051H81.681C82.5033 21.9051 83.1695 21.2363 83.1695 20.411V15.4654H86.6079V20.411C86.6079 21.2363 87.2742 21.9051 88.0964 21.9051H93.0233V25.3566Z" fill="black"/>
<path d="M22.2233 81.589V75.1493C22.2233 74.3239 21.557 73.6552 20.7348 73.6552H15.8079V68.7095C15.8079 67.8842 15.1417 67.2154 14.3195 67.2154H7.90409C7.08185 67.2154 6.41561 67.8842 6.41561 68.7095V73.6552H1.48873C0.666489 73.6552 0.000244141 74.3239 0.000244141 75.1493V81.589C0.000244141 82.4144 0.666489 83.0832 1.48873 83.0832H6.41561V88.0288C6.41561 88.8541 7.08185 89.5229 7.90409 89.5229H14.3195C15.1417 89.5229 15.8079 88.8541 15.8079 88.0288V83.0832H20.7348C21.557 83.0832 22.2233 82.4144 22.2233 81.589ZM19.2463 80.0949H14.3195C13.4972 80.0949 12.831 80.7637 12.831 81.589V86.5346H9.39257V81.589C9.39257 80.7637 8.72633 80.0949 7.90409 80.0949H2.97721V76.6434H7.90409C8.72633 76.6434 9.39257 75.9747 9.39257 75.1493V70.2037H12.831V75.1493C12.831 75.9747 13.4972 76.6434 14.3195 76.6434H19.2463V80.0949Z" fill="black"/>
<path d="M30.8422 92.9744H28.3211V90.4437C28.3211 89.6184 27.6549 88.9496 26.8326 88.9496C26.0104 88.9496 25.3441 89.6184 25.3441 90.4437V92.9744H22.8231C22.0008 92.9744 21.3346 93.6432 21.3346 94.4685C21.3346 95.2939 22.0008 95.9627 22.8231 95.9627H25.3441V98.4934C25.3441 99.3187 26.0104 99.9875 26.8326 99.9875C27.6549 99.9875 28.3211 99.3187 28.3211 98.4934V95.9627H30.8422C31.6644 95.9627 32.3307 95.2939 32.3307 94.4685C32.3307 93.6432 31.6642 92.9744 30.8422 92.9744Z" fill="black"/>
<path d="M65.1583 9.02561H67.6794V11.5563C67.6794 12.3816 68.3456 13.0504 69.1679 13.0504C69.9901 13.0504 70.6563 12.3816 70.6563 11.5563V9.02561H73.1774C73.9997 9.02561 74.6659 8.35683 74.6659 7.53147C74.6659 6.7061 73.9997 6.03732 73.1774 6.03732H70.6563V3.50665C70.6563 2.68128 69.9901 2.01251 69.1679 2.01251C68.3456 2.01251 67.6794 2.68128 67.6794 3.50665V6.03732H65.1583C64.3361 6.03732 63.6698 6.7061 63.6698 7.53147C63.6698 8.35683 64.3363 9.02561 65.1583 9.02561Z" fill="black"/>
</g>
</g>
</g>
<rect x="-939.5" y="-723.5" width="1280" height="1850" stroke="black"/>
</g>
<g id="Mobile">
</g>
<g id="LINE-UPS">
</g>
</svg>
